<?xml version="1.0" encoding="UTF-8" standalone="no"?>
<!-- Created with Inkscape (http://www.inkscape.org/) -->

<svg
   xmlns:dc="http://purl.org/dc/elements/1.1/"
   xmlns:cc="http://creativecommons.org/ns#"
   xmlns:rdf="http://www.w3.org/1999/02/22-rdf-syntax-ns#"
   xmlns:svg="http://www.w3.org/2000/svg"
   xmlns="http://www.w3.org/2000/svg"
   xmlns:sodipodi="http://sodipodi.sourceforge.net/DTD/sodipodi-0.dtd"
   xmlns:inkscape="http://www.inkscape.org/namespaces/inkscape"
   width="420"
   height="640"
   viewBox="0 0 420.00001 640.00001"
   id="svg19461"
   version="1.1"
   inkscape:version="0.92.3 (2405546, 2018-03-11)"
   sodipodi:docname="gomarker_star.svg"
   inkscape:export-filename="/home/cgil/WebstormProjects/planopinio/public/img/gomarker_square.png"
   inkscape:export-xdpi="6.8600001"
   inkscape:export-ydpi="6.8600001">
  <defs
     id="defs19463" />
  <sodipodi:namedview
     id="base"
     pagecolor="#ffffff"
     bordercolor="#666666"
     borderopacity="1.0"
     inkscape:pageopacity="0.0"
     inkscape:pageshadow="2"
     inkscape:zoom="1.1479437"
     inkscape:cx="50.757818"
     inkscape:cy="315.79009"
     inkscape:document-units="px"
     inkscape:current-layer="layer1"
     showgrid="false"
     units="px"
     inkscape:window-width="1920"
     inkscape:window-height="1172"
     inkscape:window-x="1920"
     inkscape:window-y="0"
     inkscape:window-maximized="1" />
  <metadata
     id="metadata19466">
    <rdf:RDF>
      <cc:Work
         rdf:about="">
        <dc:format>image/svg+xml</dc:format>
        <dc:type
           rdf:resource="http://purl.org/dc/dcmitype/StillImage" />
        <dc:title></dc:title>
      </cc:Work>
    </rdf:RDF>
  </metadata>
  <g
     inkscape:label="Layer 1"
     inkscape:groupmode="layer"
     id="layer1"
     transform="translate(0,-412.36213)">
    <g
       id="g20011"
       transform="matrix(0.04580893,0,0,-0.04580893,15.695498,1025.4912)"
       style="fill:#0000ff;fill-opacity:0.76470588;stroke:none;stroke-width:535.36242676;stroke-linejoin:round;stroke-miterlimit:4;stroke-dasharray:none;stroke-opacity:1">
      <path
         id="path20013"
         d="m 3935,12790 c -860,-64 -1638,-346 -2279,-827 -334,-251 -709,-621 -943,-931 C 307,10493 89,9914 18,9185 -1,8986 2,8485 23,8322 98,7755 295,7265 763,6485 c 235,-391 381,-614 1177,-1805 498,-744 581,-872 738,-1141 420,-719 756,-1422 992,-2074 114,-317 171,-504 325,-1075 36,-135 75,-264 86,-287 49,-101 153,-134 237,-73 78,57 115,146 247,597 250,854 395,1244 689,1848 352,723 750,1382 1591,2635 624,930 973,1506 1259,2078 168,335 255,565 300,794 92,461 99,1152 16,1579 -112,579 -379,1140 -788,1656 -117,148 -448,476 -611,606 -669,534 -1458,857 -2321,953 -165,18 -601,26 -765,14 z"
         inkscape:connector-curvature="0"
         style="fill:#0000ff;fill-opacity:0.76470588;stroke:none;stroke-width:535.36242676;stroke-linejoin:round;stroke-miterlimit:4;stroke-dasharray:none;stroke-opacity:1" />
    </g>
    <circle
       style="opacity:0.997;fill:#ffffff;fill-opacity:1;stroke:none;stroke-width:25.74300003;stroke-linecap:round;stroke-linejoin:round;stroke-miterlimit:4;stroke-dasharray:none;stroke-opacity:0.76470588"
       id="path20023"
       cx="210"
       cy="625.15021"
       r="135" />
    <g
       id="g5916"
       transform="matrix(0.4436403,0,0,0.4436403,24.524945,509.88058)"
       style="stroke:#000000;stroke-width:15.77854824;stroke-miterlimit:4;stroke-dasharray:none;stroke-opacity:1">
      <polygon
         id="polygon5898"
         points="207.502,203.984 351.475,183.834 415.848,58.079 480.221,183.834 624.193,203.984 520.021,301.868 544.62,440.076 415.848,374.821 287.077,440.076 311.675,301.868 "
         stroke-miterlimit="10"
         style="fill:none;stroke:#000000;stroke-width:15.77854824;stroke-linejoin:round;stroke-miterlimit:4;stroke-dasharray:none;stroke-opacity:1" />
      <line
         id="line5900"
         y2="84.850998"
         x2="555.95203"
         y1="111.958"
         x1="532.81598"
         stroke-miterlimit="10"
         style="fill:none;stroke:#000000;stroke-width:15.77854824;stroke-linejoin:round;stroke-miterlimit:4;stroke-dasharray:none;stroke-opacity:1" />
      <line
         id="line5902"
         y2="341.284"
         x2="640.85699"
         y1="327.20599"
         x1="607.53003"
         stroke-miterlimit="10"
         style="fill:none;stroke:#000000;stroke-width:15.77854824;stroke-linejoin:round;stroke-miterlimit:4;stroke-dasharray:none;stroke-opacity:1" />
      <line
         id="line5904"
         y2="497.06201"
         x2="416.26999"
         y1="461.995"
         x1="415.42599"
         stroke-miterlimit="10"
         style="fill:none;stroke:#000000;stroke-width:15.77854824;stroke-linejoin:round;stroke-miterlimit:4;stroke-dasharray:none;stroke-opacity:1" />
      <line
         id="line5906"
         y2="326.082"
         x2="227.66299"
         y1="342.40799"
         x1="195.451"
         stroke-miterlimit="10"
         style="fill:none;stroke:#000000;stroke-width:15.77854824;stroke-linejoin:round;stroke-miterlimit:4;stroke-dasharray:none;stroke-opacity:1" />
      <line
         id="line5908"
         y2="114.563"
         x2="300.41699"
         y1="91.017998"
         x1="273.414"
         stroke-miterlimit="10"
         style="fill:none;stroke:#000000;stroke-width:15.77854824;stroke-linejoin:round;stroke-miterlimit:4;stroke-dasharray:none;stroke-opacity:1" />
    </g>
  </g>
</svg>
